<svg data-v-fde0c5aa="" xmlns="http://www.w3.org/2000/svg" viewBox="0 0 300 300" class="iconLeft"><!----><defs data-v-fde0c5aa=""><!----></defs><rect data-v-fde0c5aa="" fill="transparent" x="0" y="0" width="300px" height="300px" class="logo-background-square"></rect><defs data-v-fde0c5aa=""><!----></defs><g data-v-fde0c5aa="" id="c56f0a5b-e212-4639-911c-caa71fbb4567" fill="#000000" transform="matrix(2.210615625105727,0,0,2.210615625105727,87.39512385933502,128.8001958179229)"><path d="M0.92 14.92L4.03 14.92C6.78 14.92 7.90 13.62 7.90 11.05L7.90 8.19C7.90 5.56 6.79 4.26 4.03 4.26L0.92 4.26ZM4.05 5.96C5.43 5.96 5.87 6.58 5.87 8.05L5.87 11.17C5.87 12.59 5.43 13.22 4.05 13.22L2.83 13.22L2.83 5.96ZM9.58 6.51L9.58 14.92L11.47 14.92L11.47 10.15C11.47 8.79 12.24 8.30 13.15 8.30C13.36 8.30 13.55 8.32 13.72 8.34L13.72 6.40C13.61 6.38 13.47 6.37 13.33 6.37C12.46 6.37 11.73 6.75 11.33 7.27L11.21 6.51ZM19.12 12.40C19.08 13.13 18.77 13.54 17.81 13.54C16.84 13.54 16.46 13.02 16.46 11.98L16.46 11.28L20.94 11.28L20.94 9.55C20.94 7.34 19.92 6.34 17.81 6.34C15.65 6.34 14.62 7.49 14.62 9.58L14.62 11.79C14.62 14.11 15.64 15.09 17.82 15.09C19.98 15.09 20.82 14.15 20.87 12.40ZM17.82 7.91C18.79 7.91 19.15 8.43 19.15 9.53L19.15 9.84L16.46 9.84L16.46 9.59C16.46 8.39 16.84 7.91 17.82 7.91ZM26.80 14.92L28.46 14.92L28.46 9.24C28.46 7.07 27.24 6.34 25.45 6.34C23.48 6.34 22.44 7.17 22.44 9.24L24.14 9.24C24.14 8.26 24.58 7.90 25.44 7.90C26.26 7.90 26.67 8.32 26.67 9.28L26.67 10.14C26.28 10.09 25.82 10.05 25.45 10.05C23.16 10.05 22.19 11.00 22.19 12.70C22.19 14.25 23.18 15.09 24.61 15.09C25.55 15.09 26.28 14.80 26.73 14.28ZM26.67 12.05C26.67 13.01 25.98 13.54 25.21 13.54C24.44 13.54 24.05 13.19 24.05 12.54C24.05 11.77 24.47 11.37 25.61 11.37C25.87 11.37 26.38 11.40 26.67 11.45ZM33.88 6.34C32.93 6.34 32.30 6.59 31.82 7.08L31.74 6.51L30.10 6.51L30.10 14.92L31.99 14.92L31.99 9.39C31.99 8.44 32.49 8.01 33.28 8.01C34.22 8.01 34.52 8.47 34.52 9.62L34.52 14.92L36.41 14.92L36.41 9.60C36.41 8.46 36.92 8.01 37.72 8.01C38.65 8.01 38.96 8.47 38.96 9.58L38.96 14.92L40.85 14.92L40.85 9.38C40.85 7.28 40.12 6.34 38.18 6.34C37.16 6.34 36.36 6.69 35.90 7.34C35.48 6.65 34.82 6.34 33.88 6.34ZM45.64 5.81C46.55 5.81 47.07 6.17 47.17 7.08L49.10 7.08C48.92 4.86 47.56 4.09 45.60 4.09C43.47 4.09 42.32 5.14 42.32 7.07C42.32 9.23 43.67 9.84 45.23 10.26C46.79 10.68 47.28 11.07 47.28 11.93C47.28 12.96 46.84 13.37 45.71 13.37C44.53 13.37 44.09 12.87 44.04 12.03L42.14 12.03C42.14 13.71 43.11 15.09 45.63 15.09C48.20 15.09 49.25 13.97 49.25 11.90C49.25 9.66 47.63 8.97 45.91 8.53C44.69 8.20 44.25 7.85 44.25 7.00C44.25 6.19 44.65 5.81 45.64 5.81ZM53.45 13.38C52.67 13.38 52.37 13.08 52.37 12.01L52.37 8.55L54.05 8.55L54.05 6.92L52.37 6.92L52.37 4.97L50.44 4.97L50.44 11.96C50.44 14.07 51.06 15.09 53.00 15.09C53.44 15.09 53.87 15.04 54.05 14.99L54.05 13.31C53.89 13.36 53.66 13.38 53.45 13.38ZM59.92 14.92L61.59 14.92L61.59 9.24C61.59 7.07 60.37 6.34 58.58 6.34C56.60 6.34 55.57 7.17 55.57 9.24L57.26 9.24C57.26 8.26 57.71 7.90 58.56 7.90C59.39 7.90 59.79 8.32 59.79 9.28L59.79 10.14C59.40 10.09 58.94 10.05 58.58 10.05C56.28 10.05 55.31 11.00 55.31 12.70C55.31 14.25 56.31 15.09 57.74 15.09C58.67 15.09 59.40 14.80 59.85 14.28ZM59.79 12.05C59.79 13.01 59.11 13.54 58.34 13.54C57.57 13.54 57.18 13.19 57.18 12.54C57.18 11.77 57.60 11.37 58.73 11.37C59.00 11.37 59.50 11.40 59.79 11.45ZM67.62 11.93L67.62 12.08C67.62 13.01 67.24 13.44 66.28 13.44C65.30 13.44 64.93 12.96 64.93 11.80L64.93 9.60C64.93 8.43 65.32 8.01 66.29 8.01C67.23 8.01 67.59 8.41 67.59 9.32L67.59 9.48L69.43 9.48L69.43 9.31C69.43 7.32 68.43 6.34 66.26 6.34C64.11 6.34 63.04 7.36 63.04 9.63L63.04 11.79C63.04 14.07 64.08 15.09 66.23 15.09C68.46 15.09 69.44 14.07 69.44 12.05L69.44 11.93ZM77.77 6.51L75.53 6.51L73.40 9.62L72.79 9.62L72.79 4.12L70.90 4.12L70.90 14.92L72.77 14.92L72.77 11.27L73.43 11.27L75.75 14.92L78.08 14.92L74.96 10.35Z"></path></g><defs data-v-fde0c5aa=""><!----></defs><g data-v-fde0c5aa="" id="062e1211-f471-4494-9c85-6a2f479fd5b5" stroke="none" fill="#0069FF " transform="matrix(1.5235220161853151,0,0,1.5235220161853151,39.99843044396189,131.7613066468372)"><g><path d="M14.421 8.618a.985.985 0 01-.502-.136 3.982 3.982 0 00-.76-.34 1 1 0 01.621-1.901c.398.129.783.302 1.145.513a.998.998 0 01-.504 1.864m-5.84.596a1.001 1.001 0 01-.664-1.748c.316-.28.656-.525 1.015-.73a1 1 0 01.994 1.735c-.24.137-.469.302-.68.49a.997.997 0 01-.665.253m8.331 3.759c-.553 0-1-.418-1-.97v-.06c0-.28-.029-.56-.086-.831a1 1 0 011.957-.411c.086.406.13.825.13 1.243 0 .552-.448 1.029-1 1.029m-9.899.98a1 1 0 01-.979-.797 5.99 5.99 0 01-.123-1.212c0-.552.447-1.014 1-1.014.553 0 1 .433 1 .985v.029c0 .273.028.544.082.807a1 1 0 01-.98 1.202m7.357 3.347a1 1 0 01-.493-1.871c.243-.138.473-.301.682-.485a1 1 0 011.322 1.5 6.01 6.01 0 01-1.02.726.992.992 0 01-.49.13m-4.044.388c-.104 0-.21-.017-.315-.051a6.042 6.042 0 01-1.143-.52 1 1 0 011.016-1.723c.24.14.494.257.758.344a1 1 0 01-.316 1.95M13.317 5.066c-.058 0-.116-.005-.176-.014a7.086 7.086 0 00-.97-.103 1 1 0 01-.962-1.035.994.994 0 011.035-.965c.419.016.838.06 1.246.133a1 1 0 01-.173 1.984m-6.312 1.56a1 1 0 01-.616-1.788 9.059 9.059 0 011.04-.7 1 1 0 01.999 1.734 7.028 7.028 0 00-.81.543.997.997 0 01-.613.212m11.04 1.18a.994.994 0 01-.765-.359 7.151 7.151 0 00-.68-.703 1 1 0 111.34-1.484c.312.28.605.583.87.902a1 1 0 01-.764 1.643M4.092 11.252a1 1 0 01-.978-1.21c.087-.405.205-.81.349-1.204a1 1 0 111.877.688 7.226 7.226 0 00-.271.937 1 1 0 01-.977.79m15.82 1.722c-.552 0-1-.418-1-.97v-.062c0-.322-.022-.652-.067-.976a1.001 1.001 0 011.983-.27c.056.413.085.833.085 1.247 0 .552-.448 1.03-1 1.03m-15.08 3.697c-.36 0-.706-.194-.886-.534a9.059 9.059 0 01-.506-1.149 1 1 0 111.88-.678c.112.307.244.608.395.893a.999.999 0 01-.883 1.468m13.173 1.457a1 1 0 01-.761-1.648c.21-.247.406-.512.58-.787a1.001 1.001 0 011.382-.304c.464.297.6.915.304 1.38-.222.35-.472.69-.743 1.007a.994.994 0 01-.762.352m-9.13 2.22a.999.999 0 01-.38-.075 8.812 8.812 0 01-1.122-.556 1 1 0 011.009-1.726c.28.163.574.308.873.431a1 1 0 01-.38 1.927m4.379.482a1 1 0 01-.167-1.985c.32-.055.639-.131.948-.23a1 1 0 11.605 1.906 8.909 8.909 0 01-1.22.296.957.957 0 01-.166.013M9.863 2.134a.998.998 0 01-.981-.815.999.999 0 01.796-1.168c.326-.06.658-.109.993-.144A.992.992 0 0111.77.9a1 1 0 01-.893 1.097c-.28.03-.556.07-.827.121a.983.983 0 01-.186.017m5.457.348a.996.996 0 01-.312-.05 9.71 9.71 0 00-.802-.225A1 1 0 0114.663.26c.326.077.65.168.967.271a1 1 0 01-.31 1.952M5.646 3.903a1 1 0 01-.573-1.82c.274-.192.56-.372.85-.54a1 1 0 111 1.732 9.671 9.671 0 00-.706.447.99.99 0 01-.57.181m13.628.87a.995.995 0 01-.67-.259 10.171 10.171 0 00-.642-.532.999.999 0 111.208-1.595c.267.204.526.418.774.643a1 1 0 01-.67 1.742M2.511 7.23a1.001 1.001 0 01-.854-1.518c.173-.287.36-.566.558-.837a1 1 0 111.615 1.18 9.731 9.731 0 00-.462.693 1 1 0 01-.857.482m19.456 1.241c-.384 0-.75-.22-.916-.594a9.335 9.335 0 00-.372-.75 1.001 1.001 0 011.754-.963c.16.293.31.594.447.901a1 1 0 01-.913 1.406M1.002 11.544a1 1 0 01-.993-1.126c.041-.334.098-.664.166-.99a1.001 1.001 0 011.958.416 9.388 9.388 0 00-.14.827 1 1 0 01-.992.873m21.912 1.422c-.553 0-1-.425-1-.977v-.045c0-.283-.012-.563-.035-.84a1 1 0 01.918-1.077.99.99 0 011.076.917c.026.33.04.663.04 1 0 .552-.447 1.022-1 1.022m-21.54 3.136c-.433 0-.83-.28-.96-.716a12.442 12.442 0 01-.244-.972.999.999 0 111.956-.41c.058.275.127.546.206.813a1 1 0 01-.959 1.285m20.575 1.355a.998.998 0 01-.91-1.412c.113-.253.217-.51.308-.773a1 1 0 111.889.66 11 11 0 01-.375.936 1 1 0 01-.912.59M3.567 20.111a.998.998 0 01-.76-.35 12.427 12.427 0 01-.62-.786 1.001 1.001 0 011.62-1.175c.164.228.339.448.52.661a1 1 0 01-.76 1.65m15.677 1.032a1 1 0 01-.667-1.745c.209-.186.409-.38.6-.584a1 1 0 111.454 1.374c-.23.243-.47.477-.72.7a.996.996 0 01-.667.255M7.201 22.886a.997.997 0 01-.43-.097 12.31 12.31 0 01-.888-.468 1 1 0 111.006-1.729c.241.14.489.271.742.391a1 1 0 01-.43 1.903m8.078.534a1 1 0 01-.306-1.953 9.22 9.22 0 00.781-.289 1 1 0 01.775 1.844c-.308.13-.623.246-.944.35a.993.993 0 01-.307.048m-3.63.521h-.025a12.633 12.633 0 01-.998-.066.999.999 0 11.21-1.988c.276.03.556.047.838.055a1 1 0 01-.025 2M13.912 11.944a2 2 0 10-3.999-.001 2 2 0 004 0"></path></g></g><!----></svg>