<svg xmlns="http://www.w3.org/2000/svg" viewBox="0.00103022 0.000731493 23.91 23.94">
	<path d="M14.421 8.618a.985.985 0 01-.502-.136 3.982 3.982 0 00-.76-.34 1 1 0 01.621-1.901c.398.129.783.302 1.145.513a.998.998 0 01-.504 1.864m-5.84.596a1.001 1.001 0 01-.664-1.748c.316-.28.656-.525 1.015-.73a1 1 0 01.994 1.735c-.24.137-.469.302-.68.49a.997.997 0 01-.665.253m8.331 3.759c-.553 0-1-.418-1-.97v-.06c0-.28-.029-.56-.086-.831a1 1 0 011.957-.411c.086.406.13.825.13 1.243 0 .552-.448 1.029-1 1.029m-9.899.98a1 1 0 01-.979-.797 5.99 5.99 0 01-.123-1.212c0-.552.447-1.014 1-1.014.553 0 1 .433 1 .985v.029c0 .273.028.544.082.807a1 1 0 01-.98 1.202m7.357 3.347a1 1 0 01-.493-1.871c.243-.138.473-.301.682-.485a1 1 0 011.322 1.5 6.01 6.01 0 01-1.02.726.992.992 0 01-.49.13m-4.044.388c-.104 0-.21-.017-.315-.051a6.042 6.042 0 01-1.143-.52 1 1 0 011.016-1.723c.24.14.494.257.758.344a1 1 0 01-.316 1.95M13.317 5.066c-.058 0-.116-.005-.176-.014a7.086 7.086 0 00-.97-.103 1 1 0 01-.962-1.035.994.994 0 011.035-.965c.419.016.838.06 1.246.133a1 1 0 01-.173 1.984m-6.312 1.56a1 1 0 01-.616-1.788 9.059 9.059 0 011.04-.7 1 1 0 01.999 1.734 7.028 7.028 0 00-.81.543.997.997 0 01-.613.212m11.04 1.18a.994.994 0 01-.765-.359 7.151 7.151 0 00-.68-.703 1 1 0 111.34-1.484c.312.28.605.583.87.902a1 1 0 01-.764 1.643M4.092 11.252a1 1 0 01-.978-1.21c.087-.405.205-.81.349-1.204a1 1 0 111.877.688 7.226 7.226 0 00-.271.937 1 1 0 01-.977.79m15.82 1.722c-.552 0-1-.418-1-.97v-.062c0-.322-.022-.652-.067-.976a1.001 1.001 0 011.983-.27c.056.413.085.833.085 1.247 0 .552-.448 1.03-1 1.03m-15.08 3.697c-.36 0-.706-.194-.886-.534a9.059 9.059 0 01-.506-1.149 1 1 0 111.88-.678c.112.307.244.608.395.893a.999.999 0 01-.883 1.468m13.173 1.457a1 1 0 01-.761-1.648c.21-.247.406-.512.58-.787a1.001 1.001 0 011.382-.304c.464.297.6.915.304 1.38-.222.35-.472.69-.743 1.007a.994.994 0 01-.762.352m-9.13 2.22a.999.999 0 01-.38-.075 8.812 8.812 0 01-1.122-.556 1 1 0 011.009-1.726c.28.163.574.308.873.431a1 1 0 01-.38 1.927m4.379.482a1 1 0 01-.167-1.985c.32-.055.639-.131.948-.23a1 1 0 11.605 1.906 8.909 8.909 0 01-1.22.296.957.957 0 01-.166.013M9.863 2.134a.998.998 0 01-.981-.815.999.999 0 01.796-1.168c.326-.06.658-.109.993-.144A.992.992 0 0111.77.9a1 1 0 01-.893 1.097c-.28.03-.556.07-.827.121a.983.983 0 01-.186.017m5.457.348a.996.996 0 01-.312-.05 9.71 9.71 0 00-.802-.225A1 1 0 0114.663.26c.326.077.65.168.967.271a1 1 0 01-.31 1.952M5.646 3.903a1 1 0 01-.573-1.82c.274-.192.56-.372.85-.54a1 1 0 111 1.732 9.671 9.671 0 00-.706.447.99.99 0 01-.57.181m13.628.87a.995.995 0 01-.67-.259 10.171 10.171 0 00-.642-.532.999.999 0 111.208-1.595c.267.204.526.418.774.643a1 1 0 01-.67 1.742M2.511 7.23a1.001 1.001 0 01-.854-1.518c.173-.287.36-.566.558-.837a1 1 0 111.615 1.18 9.731 9.731 0 00-.462.693 1 1 0 01-.857.482m19.456 1.241c-.384 0-.75-.22-.916-.594a9.335 9.335 0 00-.372-.75 1.001 1.001 0 011.754-.963c.16.293.31.594.447.901a1 1 0 01-.913 1.406M1.002 11.544a1 1 0 01-.993-1.126c.041-.334.098-.664.166-.99a1.001 1.001 0 011.958.416 9.388 9.388 0 00-.14.827 1 1 0 01-.992.873m21.912 1.422c-.553 0-1-.425-1-.977v-.045c0-.283-.012-.563-.035-.84a1 1 0 01.918-1.077.99.99 0 011.076.917c.026.33.04.663.04 1 0 .552-.447 1.022-1 1.022m-21.54 3.136c-.433 0-.83-.28-.96-.716a12.442 12.442 0 01-.244-.972.999.999 0 111.956-.41c.058.275.127.546.206.813a1 1 0 01-.959 1.285m20.575 1.355a.998.998 0 01-.91-1.412c.113-.253.217-.51.308-.773a1 1 0 111.889.66 11 11 0 01-.375.936 1 1 0 01-.912.59M3.567 20.111a.998.998 0 01-.76-.35 12.427 12.427 0 01-.62-.786 1.001 1.001 0 011.62-1.175c.164.228.339.448.52.661a1 1 0 01-.76 1.65m15.677 1.032a1 1 0 01-.667-1.745c.209-.186.409-.38.6-.584a1 1 0 111.454 1.374c-.23.243-.47.477-.72.7a.996.996 0 01-.667.255M7.201 22.886a.997.997 0 01-.43-.097 12.31 12.31 0 01-.888-.468 1 1 0 111.006-1.729c.241.14.489.271.742.391a1 1 0 01-.43 1.903m8.078.534a1 1 0 01-.306-1.953 9.22 9.22 0 00.781-.289 1 1 0 01.775 1.844c-.308.13-.623.246-.944.35a.993.993 0 01-.307.048m-3.63.521h-.025a12.633 12.633 0 01-.998-.066.999.999 0 11.21-1.988c.276.03.556.047.838.055a1 1 0 01-.025 2M13.912 11.944a2 2 0 10-3.999-.001 2 2 0 004 0" fill="#0069FF"/>
</svg>