<svg data-v-fde0c5aa="" xmlns="http://www.w3.org/2000/svg" viewBox="0 0 300 300" class="iconLeft"><!----><defs data-v-fde0c5aa=""><!----></defs><rect data-v-fde0c5aa="" fill="transparent" x="0" y="0" width="300px" height="300px" class="logo-background-square"></rect><defs data-v-fde0c5aa=""><!----></defs><g data-v-fde0c5aa="" id="3f4aa1f2-0720-445a-ab20-38568d622dd3" fill="#333333 " transform="matrix(2.3121737409009784,0,0,2.3121737409009784,85.36151658900316,128.83205001946854)"><path d="M1.09 14Q0.85 14 0.85 13.76L0.85 13.76L0.85 4.44Q0.85 4.20 1.09 4.20L1.09 4.20L4.52 4.20Q5.57 4.20 6.36 4.57Q7.15 4.94 7.59 5.61Q8.02 6.29 8.02 7.17L8.02 7.17L8.02 11.03Q8.02 11.91 7.59 12.59Q7.15 13.26 6.36 13.63Q5.57 14 4.52 14L4.52 14L1.09 14ZM2.83 12.22Q2.83 12.31 2.91 12.31L2.91 12.31L4.59 12.31Q5.24 12.31 5.63 11.87Q6.03 11.44 6.05 10.71L6.05 10.71L6.05 7.49Q6.05 6.76 5.65 6.33Q5.25 5.89 4.58 5.89L4.58 5.89L2.91 5.89Q2.83 5.89 2.83 5.98L2.83 5.98L2.83 12.22ZM12.96 6.71Q13.41 6.71 13.71 6.87L13.71 6.87Q13.87 6.96 13.83 7.17L13.83 7.17L13.57 8.64Q13.55 8.76 13.49 8.79Q13.43 8.82 13.29 8.79L13.29 8.79Q13.06 8.74 12.88 8.74L12.88 8.74Q12.78 8.74 12.56 8.76L12.56 8.76Q12.05 8.81 11.70 9.13Q11.35 9.46 11.35 10.01L11.35 10.01L11.35 13.76Q11.35 14 11.12 14L11.12 14L9.62 14Q9.38 14 9.38 13.76L9.38 13.76L9.38 7.04Q9.38 6.80 9.62 6.80L9.62 6.80L11.12 6.80Q11.35 6.80 11.35 7.04L11.35 7.04L11.35 7.48Q11.35 7.53 11.38 7.55Q11.41 7.56 11.45 7.52L11.45 7.52Q12.01 6.71 12.96 6.71L12.96 6.71ZM18.03 12.45Q18.96 12.40 19.45 11.80L19.45 11.80Q19.53 11.70 19.63 11.70L19.63 11.70Q19.71 11.70 19.78 11.77L19.78 11.77L20.58 12.54Q20.66 12.63 20.66 12.71L20.66 12.71Q20.66 12.81 20.61 12.88L20.61 12.88Q20.15 13.45 19.43 13.78Q18.70 14.11 17.85 14.11L17.85 14.11Q16.56 14.11 15.71 13.45Q14.87 12.80 14.57 11.65L14.57 11.65Q14.41 11.03 14.41 10.35L14.41 10.35Q14.41 9.53 14.56 8.97L14.56 8.97Q14.84 7.94 15.69 7.31Q16.53 6.68 17.70 6.68L17.70 6.68Q19.07 6.68 19.87 7.49Q20.68 8.30 20.92 9.77L20.92 9.77Q20.97 10.23 21 10.79L21 10.79Q21 11.03 20.76 11.03L20.76 11.03L16.46 11.03Q16.38 11.03 16.38 11.12L16.38 11.12Q16.42 11.41 16.48 11.55L16.48 11.55Q16.62 11.98 17.03 12.21Q17.44 12.45 18.03 12.45L18.03 12.45ZM17.67 8.39Q17.22 8.39 16.92 8.60Q16.62 8.82 16.51 9.21L16.51 9.21Q16.44 9.48 16.42 9.56L16.42 9.56Q16.41 9.65 16.49 9.65L16.49 9.65L18.87 9.65Q18.94 9.65 18.94 9.59L18.94 9.59Q18.94 9.44 18.89 9.27L18.89 9.27Q18.76 8.86 18.45 8.62Q18.14 8.39 17.67 8.39L17.67 8.39ZM25.10 6.69Q26.01 6.69 26.73 7.01Q27.44 7.32 27.84 7.87Q28.24 8.41 28.24 9.09L28.24 9.09L28.24 13.76Q28.24 14 28 14L28 14L26.50 14Q26.26 14 26.26 13.76L26.26 13.76L26.26 13.43Q26.26 13.37 26.24 13.36Q26.21 13.36 26.17 13.40L26.17 13.40Q25.52 14.11 24.25 14.11L24.25 14.11Q23.17 14.11 22.51 13.58Q21.85 13.05 21.85 12.01L21.85 12.01Q21.85 10.93 22.61 10.34Q23.37 9.74 24.77 9.74L24.77 9.74L26.18 9.74Q26.26 9.74 26.26 9.66L26.26 9.66L26.26 9.37Q26.26 8.90 25.98 8.64Q25.69 8.39 25.14 8.39L25.14 8.39Q24.72 8.39 24.45 8.53Q24.18 8.67 24.08 8.92L24.08 8.92Q24.00 9.11 23.80 9.10L23.80 9.10L22.25 8.90Q22.13 8.89 22.07 8.84Q22.01 8.79 22.02 8.71L22.02 8.71Q22.09 8.13 22.51 7.67Q22.92 7.21 23.60 6.95Q24.28 6.69 25.10 6.69L25.10 6.69ZM24.82 12.64Q25.42 12.64 25.84 12.32Q26.26 12.00 26.26 11.49L26.26 11.49L26.26 11.00Q26.26 10.92 26.18 10.92L26.18 10.92L25.19 10.92Q24.56 10.92 24.19 11.16Q23.83 11.40 23.83 11.83L23.83 11.83Q23.83 12.21 24.10 12.43Q24.37 12.64 24.82 12.64L24.82 12.64ZM37.59 6.69Q38.68 6.69 39.30 7.35Q39.91 8.01 39.91 9.20L39.91 9.20L39.91 13.76Q39.91 14 39.68 14L39.68 14L38.18 14Q37.94 14 37.94 13.76L37.94 13.76L37.94 9.63Q37.94 9.06 37.65 8.72Q37.35 8.39 36.86 8.39L36.86 8.39Q36.37 8.39 36.06 8.72Q35.76 9.06 35.76 9.62L35.76 9.62L35.76 13.76Q35.76 14 35.52 14L35.52 14L34.03 14Q33.80 14 33.80 13.76L33.80 13.76L33.80 9.63Q33.80 9.07 33.49 8.73Q33.18 8.39 32.69 8.39L32.69 8.39Q32.24 8.39 31.94 8.65Q31.64 8.92 31.58 9.39L31.58 9.39L31.58 13.76Q31.58 14 31.35 14L31.35 14L29.85 14Q29.61 14 29.61 13.76L29.61 13.76L29.61 7.04Q29.61 6.80 29.85 6.80L29.85 6.80L31.35 6.80Q31.58 6.80 31.58 7.04L31.58 7.04L31.58 7.49Q31.58 7.55 31.62 7.56Q31.65 7.57 31.68 7.52L31.68 7.52Q32.26 6.69 33.45 6.69L33.45 6.69Q34.15 6.69 34.66 6.98Q35.18 7.27 35.46 7.81L35.46 7.81Q35.48 7.87 35.51 7.86Q35.55 7.85 35.57 7.81L35.57 7.81Q35.90 7.25 36.41 6.97Q36.93 6.69 37.59 6.69L37.59 6.69ZM44.10 14Q43.90 14 43.83 13.80L43.83 13.80L40.99 4.47Q40.98 4.44 40.98 4.38L40.98 4.38Q40.98 4.20 41.19 4.20L41.19 4.20L42.81 4.20Q43.01 4.20 43.08 4.40L43.08 4.40L44.91 11.14Q44.93 11.20 44.97 11.20Q45.01 11.20 45.02 11.14L45.02 11.14L46.83 4.41Q46.90 4.20 47.10 4.20L47.10 4.20L48.68 4.20Q48.80 4.20 48.86 4.28Q48.92 4.35 48.87 4.47L48.87 4.47L45.99 13.80Q45.92 14 45.72 14L45.72 14L44.10 14ZM52.61 12.45Q53.54 12.40 54.03 11.80L54.03 11.80Q54.11 11.70 54.21 11.70L54.21 11.70Q54.29 11.70 54.36 11.77L54.36 11.77L55.16 12.54Q55.24 12.63 55.24 12.71L55.24 12.71Q55.24 12.81 55.19 12.88L55.19 12.88Q54.73 13.45 54.00 13.78Q53.28 14.11 52.43 14.11L52.43 14.11Q51.14 14.11 50.30 13.45Q49.45 12.80 49.15 11.65L49.15 11.65Q48.99 11.03 48.99 10.35L48.99 10.35Q48.99 9.53 49.14 8.97L49.14 8.97Q49.42 7.94 50.27 7.31Q51.11 6.68 52.28 6.68L52.28 6.68Q53.65 6.68 54.45 7.49Q55.26 8.30 55.50 9.77L55.50 9.77Q55.55 10.23 55.58 10.79L55.58 10.79Q55.58 11.03 55.34 11.03L55.34 11.03L51.04 11.03Q50.96 11.03 50.96 11.12L50.96 11.12Q51.00 11.41 51.06 11.55L51.06 11.55Q51.20 11.98 51.61 12.21Q52.02 12.45 52.61 12.45L52.61 12.45ZM52.25 8.39Q51.80 8.39 51.50 8.60Q51.20 8.82 51.09 9.21L51.09 9.21Q51.02 9.48 51.00 9.56L51.00 9.56Q50.99 9.65 51.07 9.65L51.07 9.65L53.45 9.65Q53.52 9.65 53.52 9.59L53.52 9.59Q53.52 9.44 53.47 9.27L53.47 9.27Q53.34 8.86 53.03 8.62Q52.72 8.39 52.25 8.39L52.25 8.39ZM60.38 6.71Q60.83 6.71 61.12 6.87L61.12 6.87Q61.29 6.96 61.25 7.17L61.25 7.17L60.98 8.64Q60.97 8.76 60.91 8.79Q60.84 8.82 60.70 8.79L60.70 8.79Q60.48 8.74 60.30 8.74L60.30 8.74Q60.20 8.74 59.98 8.76L59.98 8.76Q59.47 8.81 59.12 9.13Q58.77 9.46 58.77 10.01L58.77 10.01L58.77 13.76Q58.77 14 58.53 14L58.53 14L57.04 14Q56.80 14 56.80 13.76L56.80 13.76L56.80 7.04Q56.80 6.80 57.04 6.80L57.04 6.80L58.53 6.80Q58.77 6.80 58.77 7.04L58.77 7.04L58.77 7.48Q58.77 7.53 58.80 7.55Q58.83 7.56 58.87 7.52L58.87 7.52Q59.43 6.71 60.38 6.71L60.38 6.71ZM64.92 14.10Q63.98 14.10 63.28 13.83Q62.58 13.57 62.20 13.09Q61.82 12.61 61.82 12.01L61.82 12.01L61.82 11.94Q61.82 11.70 62.06 11.70L62.06 11.70L63.48 11.70Q63.71 11.70 63.71 11.79L63.71 11.79L63.71 11.89Q63.71 12.19 64.05 12.41Q64.39 12.63 64.90 12.63L64.90 12.63Q65.38 12.63 65.67 12.45Q65.97 12.26 65.97 11.97L65.97 11.97Q65.97 11.72 65.72 11.59Q65.46 11.47 64.89 11.33L64.89 11.33Q64.20 11.14 63.87 11.00L63.87 11.00Q62.96 10.70 62.43 10.25Q61.89 9.80 61.89 8.96L61.89 8.96Q61.89 7.92 62.71 7.31Q63.52 6.71 64.83 6.71L64.83 6.71Q65.73 6.71 66.41 6.99Q67.09 7.28 67.46 7.80Q67.83 8.32 67.83 8.97L67.83 8.97Q67.83 9.04 67.77 9.09Q67.70 9.14 67.59 9.14L67.59 9.14L66.22 9.14Q65.98 9.14 65.98 9.06L65.98 9.06L65.98 8.97Q65.98 8.67 65.67 8.46Q65.37 8.25 64.85 8.25L64.85 8.25Q64.39 8.25 64.08 8.41Q63.78 8.58 63.78 8.88L63.78 8.88Q63.78 9.16 64.07 9.30Q64.36 9.44 65.02 9.59L65.02 9.59Q65.42 9.67 65.80 9.80L65.80 9.80Q66.81 10.09 67.38 10.56Q67.96 11.02 67.96 11.90L67.96 11.90Q67.96 12.94 67.13 13.52Q66.30 14.10 64.92 14.10L64.92 14.10ZM72.56 12.45Q73.49 12.40 73.98 11.80L73.98 11.80Q74.06 11.70 74.16 11.70L74.16 11.70Q74.24 11.70 74.31 11.77L74.31 11.77L75.11 12.54Q75.19 12.63 75.19 12.71L75.19 12.71Q75.19 12.81 75.14 12.88L75.14 12.88Q74.68 13.45 73.95 13.78Q73.23 14.11 72.38 14.11L72.38 14.11Q71.09 14.11 70.24 13.45Q69.40 12.80 69.10 11.65L69.10 11.65Q68.94 11.03 68.94 10.35L68.94 10.35Q68.94 9.53 69.09 8.97L69.09 8.97Q69.37 7.94 70.22 7.31Q71.06 6.68 72.23 6.68L72.23 6.68Q73.60 6.68 74.40 7.49Q75.21 8.30 75.45 9.77L75.45 9.77Q75.50 10.23 75.53 10.79L75.53 10.79Q75.53 11.03 75.29 11.03L75.29 11.03L70.99 11.03Q70.91 11.03 70.91 11.12L70.91 11.12Q70.95 11.41 71.01 11.55L71.01 11.55Q71.15 11.98 71.56 12.21Q71.97 12.45 72.56 12.45L72.56 12.45ZM72.20 8.39Q71.75 8.39 71.45 8.60Q71.15 8.82 71.04 9.21L71.04 9.21Q70.97 9.48 70.95 9.56L70.95 9.56Q70.94 9.65 71.02 9.65L71.02 9.65L73.40 9.65Q73.47 9.65 73.47 9.59L73.47 9.59Q73.47 9.44 73.42 9.27L73.42 9.27Q73.29 8.86 72.98 8.62Q72.67 8.39 72.20 8.39L72.20 8.39Z"></path></g><defs data-v-fde0c5aa=""><!----></defs><g data-v-fde0c5aa="" id="c952d24f-67ce-4b2a-b508-d55f826d9188" stroke="none" fill="#0069FF " transform="matrix(1.4356114928163464,0,0,1.4356114928163464,39.99852101074812,132.8137187952729)"><g><path d="M14.421 8.618a.985.985 0 01-.502-.136 3.982 3.982 0 00-.76-.34 1 1 0 01.621-1.901c.398.129.783.302 1.145.513a.998.998 0 01-.504 1.864m-5.84.596a1.001 1.001 0 01-.664-1.748c.316-.28.656-.525 1.015-.73a1 1 0 01.994 1.735c-.24.137-.469.302-.68.49a.997.997 0 01-.665.253m8.331 3.759c-.553 0-1-.418-1-.97v-.06c0-.28-.029-.56-.086-.831a1 1 0 011.957-.411c.086.406.13.825.13 1.243 0 .552-.448 1.029-1 1.029m-9.899.98a1 1 0 01-.979-.797 5.99 5.99 0 01-.123-1.212c0-.552.447-1.014 1-1.014.553 0 1 .433 1 .985v.029c0 .273.028.544.082.807a1 1 0 01-.98 1.202m7.357 3.347a1 1 0 01-.493-1.871c.243-.138.473-.301.682-.485a1 1 0 011.322 1.5 6.01 6.01 0 01-1.02.726.992.992 0 01-.49.13m-4.044.388c-.104 0-.21-.017-.315-.051a6.042 6.042 0 01-1.143-.52 1 1 0 011.016-1.723c.24.14.494.257.758.344a1 1 0 01-.316 1.95M13.317 5.066c-.058 0-.116-.005-.176-.014a7.086 7.086 0 00-.97-.103 1 1 0 01-.962-1.035.994.994 0 011.035-.965c.419.016.838.06 1.246.133a1 1 0 01-.173 1.984m-6.312 1.56a1 1 0 01-.616-1.788 9.059 9.059 0 011.04-.7 1 1 0 01.999 1.734 7.028 7.028 0 00-.81.543.997.997 0 01-.613.212m11.04 1.18a.994.994 0 01-.765-.359 7.151 7.151 0 00-.68-.703 1 1 0 111.34-1.484c.312.28.605.583.87.902a1 1 0 01-.764 1.643M4.092 11.252a1 1 0 01-.978-1.21c.087-.405.205-.81.349-1.204a1 1 0 111.877.688 7.226 7.226 0 00-.271.937 1 1 0 01-.977.79m15.82 1.722c-.552 0-1-.418-1-.97v-.062c0-.322-.022-.652-.067-.976a1.001 1.001 0 011.983-.27c.056.413.085.833.085 1.247 0 .552-.448 1.03-1 1.03m-15.08 3.697c-.36 0-.706-.194-.886-.534a9.059 9.059 0 01-.506-1.149 1 1 0 111.88-.678c.112.307.244.608.395.893a.999.999 0 01-.883 1.468m13.173 1.457a1 1 0 01-.761-1.648c.21-.247.406-.512.58-.787a1.001 1.001 0 011.382-.304c.464.297.6.915.304 1.38-.222.35-.472.69-.743 1.007a.994.994 0 01-.762.352m-9.13 2.22a.999.999 0 01-.38-.075 8.812 8.812 0 01-1.122-.556 1 1 0 011.009-1.726c.28.163.574.308.873.431a1 1 0 01-.38 1.927m4.379.482a1 1 0 01-.167-1.985c.32-.055.639-.131.948-.23a1 1 0 11.605 1.906 8.909 8.909 0 01-1.22.296.957.957 0 01-.166.013M9.863 2.134a.998.998 0 01-.981-.815.999.999 0 01.796-1.168c.326-.06.658-.109.993-.144A.992.992 0 0111.77.9a1 1 0 01-.893 1.097c-.28.03-.556.07-.827.121a.983.983 0 01-.186.017m5.457.348a.996.996 0 01-.312-.05 9.71 9.71 0 00-.802-.225A1 1 0 0114.663.26c.326.077.65.168.967.271a1 1 0 01-.31 1.952M5.646 3.903a1 1 0 01-.573-1.82c.274-.192.56-.372.85-.54a1 1 0 111 1.732 9.671 9.671 0 00-.706.447.99.99 0 01-.57.181m13.628.87a.995.995 0 01-.67-.259 10.171 10.171 0 00-.642-.532.999.999 0 111.208-1.595c.267.204.526.418.774.643a1 1 0 01-.67 1.742M2.511 7.23a1.001 1.001 0 01-.854-1.518c.173-.287.36-.566.558-.837a1 1 0 111.615 1.18 9.731 9.731 0 00-.462.693 1 1 0 01-.857.482m19.456 1.241c-.384 0-.75-.22-.916-.594a9.335 9.335 0 00-.372-.75 1.001 1.001 0 011.754-.963c.16.293.31.594.447.901a1 1 0 01-.913 1.406M1.002 11.544a1 1 0 01-.993-1.126c.041-.334.098-.664.166-.99a1.001 1.001 0 011.958.416 9.388 9.388 0 00-.14.827 1 1 0 01-.992.873m21.912 1.422c-.553 0-1-.425-1-.977v-.045c0-.283-.012-.563-.035-.84a1 1 0 01.918-1.077.99.99 0 011.076.917c.026.33.04.663.04 1 0 .552-.447 1.022-1 1.022m-21.54 3.136c-.433 0-.83-.28-.96-.716a12.442 12.442 0 01-.244-.972.999.999 0 111.956-.41c.058.275.127.546.206.813a1 1 0 01-.959 1.285m20.575 1.355a.998.998 0 01-.91-1.412c.113-.253.217-.51.308-.773a1 1 0 111.889.66 11 11 0 01-.375.936 1 1 0 01-.912.59M3.567 20.111a.998.998 0 01-.76-.35 12.427 12.427 0 01-.62-.786 1.001 1.001 0 011.62-1.175c.164.228.339.448.52.661a1 1 0 01-.76 1.65m15.677 1.032a1 1 0 01-.667-1.745c.209-.186.409-.38.6-.584a1 1 0 111.454 1.374c-.23.243-.47.477-.72.7a.996.996 0 01-.667.255M7.201 22.886a.997.997 0 01-.43-.097 12.31 12.31 0 01-.888-.468 1 1 0 111.006-1.729c.241.14.489.271.742.391a1 1 0 01-.43 1.903m8.078.534a1 1 0 01-.306-1.953 9.22 9.22 0 00.781-.289 1 1 0 01.775 1.844c-.308.13-.623.246-.944.35a.993.993 0 01-.307.048m-3.63.521h-.025a12.633 12.633 0 01-.998-.066.999.999 0 11.21-1.988c.276.03.556.047.838.055a1 1 0 01-.025 2M13.912 11.944a2 2 0 10-3.999-.001 2 2 0 004 0"></path></g></g><!----></svg>